<?xml version="1.0" encoding="utf-8"?>
<!-- Generator: Adobe Illustrator 19.0.0, SVG Export Plug-In . SVG Version: 6.00 Build 0)  -->
<svg version="1.1" id="Layer_1" xmlns="http://www.w3.org/2000/svg" xmlns:xlink="http://www.w3.org/1999/xlink" x="0px" y="0px"
	 viewBox="-260 340.5 90 112.5" style="enable-background:new -260 340.5 90 112.5;" xml:space="preserve">
<style type="text/css">
	.st0{fill:#FFFFFF;stroke:#C53C6A;stroke-width:2.8346;stroke-miterlimit:10;}
	.st1{fill:#C53C6A;}
</style>
<path class="st0" d="M-181.1,451.6H-249c-5.5,0-10-4.5-10-10v-89.8c0-5.5,4.5-10,10-10h67.9c5.5,0,10,4.5,10,10v89.8
	C-171.1,447.1-175.6,451.6-181.1,451.6z"/>
<g transform="matrix(1,0,0,1,-400,-200)">
	<g>
		<path class="st1" d="M202,579.5l-0.5,11.5c-0.5,0-1.1-0.1-1.6-0.1c-5,0-9.5,1.8-13.1,4.7l-7.7-14.4c-0.2-0.4-0.6-0.6-1-0.6
			s-0.8,0.2-1,0.6l-9.2,17.2c-0.2,0.4-0.2,0.8,0,1.1c0.2,0.3,0.6,0.6,1,0.6h13.8c-2.2,3.3-3.5,7.2-3.5,11.5c0,3.8,1,7.3,2.8,10.3
			h-26l-1.8-42.4H202L202,579.5z M190.4,629.9h-32.9c-0.6,0-0.8-0.3-0.9-0.5c-0.1-0.2-0.2-0.4-0.2-0.6l-0.2-4.6h27.4
			C185.4,626.5,187.7,628.5,190.4,629.9z M185,597.3c-0.2,0.2-0.3,0.3-0.5,0.5h-13.6l7.2-13.5L185,597.3z M176.9,588.5v3.4
			c0,0.6,0.5,1.1,1.1,1.1s1.1-0.5,1.1-1.1v-3.4c0-0.6-0.5-1.1-1.1-1.1S176.9,587.9,176.9,588.5z M178.1,594.3
			c-0.6,0-1.1,0.5-1.1,1.1s0.5,1.1,1.1,1.1s1.1-0.5,1.1-1.1S178.7,594.3,178.1,594.3z M166.6,566.3c1-1.6,2.7-2.9,4.7-2.9H185
			c1.9,0,3.6,1.2,4.7,2.9H166.6z M198.7,568.7c1.5,0,3,0.6,4,1.7c1.1,1.1,1.7,2.5,1.7,4v1.7c0,0.6-0.5,1.1-1.1,1.1h-50.4
			c-0.6,0-1.1-0.5-1.1-1.1v-1.6c0-1.5,0.6-3,1.7-4c1.1-1.1,2.5-1.7,4-1.7L198.7,568.7L198.7,568.7z M199.9,593.3
			c10.1,0,18.3,8.2,18.3,18.3s-8.2,18.3-18.3,18.3s-18.3-8.2-18.3-18.3S189.7,593.3,199.9,593.3z M197.7,600.2
			c-0.6,0-1.1,0.5-1.1,1.1v10.3c0,0.5-0.1,1.1-0.4,1.5l-3.9,6.5c-0.2,0.3-0.3,0.7-0.3,1.2c0,1.2,1,2.2,2.2,2.2h11.7
			c1.2,0,2.2-1,2.2-2.2c0-0.4-0.1-0.8-0.3-1.2l-3.9-6.5c-0.3-0.5-0.4-1-0.4-1.5v-10.3c0-0.6-0.5-1.1-1.1-1.1H197.7z M195.5,618.5
			h8.6l1.4,2.3h-11.3L195.5,618.5z M202.8,616.3h-5.9l1.1-1.9c0.5-0.8,0.7-1.7,0.7-2.7v-9.2h2.1v9.2c0,1,0.3,1.9,0.7,2.7
			L202.8,616.3z"/>
	</g>
</g>
</svg>
